<?xml version="1.0" ?><!DOCTYPE svg  PUBLIC '-//W3C//DTD SVG 1.0//EN'  'http://www.w3.org/TR/2001/REC-SVG-20010904/DTD/svg10.dtd'><svg enable-background="new 0 0 128 128" height="128px" id="Layer_1" version="1.0" viewBox="0 0 128 128" width="128px" xml:space="preserve" xmlns="http://www.w3.org/2000/svg" xmlns:xlink="http://www.w3.org/1999/xlink"><g><path d="M126.356,113.104c-1.267-1.779-3.146-2.957-5.312-3.393c-0.051-0.107-0.107-0.211-0.177-0.309L101.33,81.957   c-0.002-0.002-0.002-0.005-0.004-0.007l-38.23-53.711c0.612-0.694,1.031-1.538,1.188-2.473c0.143-0.849,0.045-1.695-0.232-2.485   L74.515,7.775c0.466-0.691,0.455-1.599-0.028-2.278c-0.484-0.679-1.341-0.986-2.144-0.773L54.279,9.524   c-0.879-0.698-1.976-1.099-3.124-1.099c-0.584,0-1.152,0.11-1.691,0.304l-13.07-8.411c-0.688-0.443-1.576-0.422-2.242,0.052   s-0.977,1.306-0.784,2.101l3.67,15.123c-0.583,0.729-0.947,1.586-1.064,2.488l-16.744-2.819c-1.606-0.271-3.812,0.246-5.12,1.176   L2.625,26.613c-2.708,1.928-3.343,5.7-1.416,8.409l21.38,30.039c1.129,1.586,2.966,2.532,4.915,2.532   c1.258,0,2.466-0.387,3.493-1.117l11.486-8.172c1.343-0.954,2.517-2.827,2.79-4.452l2.817-16.734   c0.334,0.07,0.675,0.113,1.021,0.113c0.657,0,1.292-0.141,1.89-0.385l38.23,53.714c0.002,0.002,0.004,0.004,0.005,0.006   l19.537,27.446c0.068,0.097,0.151,0.175,0.233,0.255c-0.303,2.212,0.203,4.367,1.466,6.141c1.626,2.283,4.251,3.593,7.204,3.593   c2.109,0,4.163-0.668,5.942-1.932C127.997,122.95,129.225,117.135,126.356,113.104z M121.301,122.809   c-1.097,0.779-2.35,1.191-3.624,1.191c-1.642,0-3.08-0.697-3.945-1.913c-0.746-1.048-0.989-2.373-0.686-3.733   c0.098-0.436,0.262-0.852,0.458-1.254l4.959-3.529c0.23-0.027,0.461-0.056,0.693-0.056c1.641,0,3.078,0.696,3.941,1.91   C124.688,117.658,123.881,120.972,121.301,122.809z M98.427,86.469l0.8-0.569l17.107,24.03l0.116,0.164l-5.578,3.969l-0.114-0.16   L93.65,89.869L98.427,86.469z M27.504,63.593c-0.657,0-1.276-0.318-1.656-0.853L4.468,32.703c-0.649-0.912-0.436-2.182,0.476-2.831   l11.484-8.174c0.04-0.028,0.104-0.057,0.156-0.085l23.615,33.399c-0.011,0.008-0.023,0.024-0.034,0.032l-11.487,8.173   C28.332,63.463,27.926,63.593,27.504,63.593C27.504,63.593,27.504,63.593,27.504,63.593z M45.775,11.113L45.775,11.113l-4.382,3.12   l-0.9,0.641l-2.06-8.485L45.775,11.113z M68.215,9.96l-6.509,9.646l-4.738-6.658L68.215,9.96z M37.37,24.373l2.603,3.657   l4.521,6.354l-2.689,15.971L21.552,21.71L37.37,24.373z M49.111,33.23c-0.336,0-0.641-0.156-0.835-0.43l-0.038-0.054l-4.608-6.475   l-3.526-4.956c-0.327-0.459-0.219-1.099,0.24-1.426l0.693-0.494l1.63-1.16l5.575-3.968l1.629-1.16l0.693-0.494   c0.22-0.157,0.442-0.19,0.59-0.19c0.336,0,0.641,0.157,0.835,0.43l8.174,11.485c0.158,0.223,0.221,0.494,0.175,0.763   s-0.193,0.504-0.416,0.663l-0.693,0.493l-1.629,1.16l-5.575,3.968l-1.629,1.16l-0.695,0.495   C49.481,33.198,49.259,33.23,49.111,33.23z M59.921,30.677l36.986,51.963l-4.776,3.4l-0.8,0.569L54.346,34.646L59.921,30.677z"/></g></svg>