<?xml version="1.0" ?><!DOCTYPE svg  PUBLIC '-//W3C//DTD SVG 1.0//EN'  'http://www.w3.org/TR/2001/REC-SVG-20010904/DTD/svg10.dtd'><svg enable-background="new 0 0 128 128" height="128px" id="Layer_1" version="1.0" viewBox="0 0 128 128" width="128px" xml:space="preserve" xmlns="http://www.w3.org/2000/svg" xmlns:xlink="http://www.w3.org/1999/xlink"><g><g><polygon points="61.142,27.945 52.023,34.435 90.855,88.995 100.012,82.558   "/><path d="M44.863,33.861l-8.437-11.855c-0.249-0.35-0.422-0.728-0.561-1.113l-18.051-3.039l24.8,35.401    c0.004-0.024,0.013-0.049,0.017-0.073l3.1-18.409C45.405,34.51,45.11,34.208,44.863,33.861z"/><path d="M13.695,18.651L1.84,27.089c-1.872,1.332-2.309,3.929-0.977,5.801l22.069,31.006c1.332,1.872,3.93,2.31,5.801,0.977    l11.857-8.435c0.125-0.089,0.25-0.195,0.374-0.31L14.429,18.25C14.158,18.368,13.906,18.501,13.695,18.651z"/><polygon points="73.141,4.807 54.876,9.662 62.571,20.472   "/><polygon points="47.508,8.445 34.383,0 38.064,15.17   "/><path d="M60.118,24.992c0.353-0.251,0.586-0.624,0.658-1.05c0.072-0.427-0.027-0.856-0.279-1.209l-8.438-11.855    c-0.303-0.426-0.797-0.68-1.322-0.68c-0.337,0-0.661,0.104-0.937,0.301l-0.715,0.509l-9.117,6.491l-0.717,0.51    c-0.727,0.518-0.898,1.532-0.381,2.259l8.437,11.855c0.498,0.7,1.554,0.884,2.258,0.381l0.719-0.512l9.119-6.49L60.118,24.992z"/><path d="M126.686,115.887c-1.164-1.635-2.961-2.581-4.914-2.791l-20.02-28.094l-9.156,6.437l20.041,28.129    c-0.455,1.928-0.154,3.949,1.016,5.592c2.307,3.241,7.088,3.789,10.689,1.231C127.939,123.827,128.988,119.124,126.686,115.887z"/></g></g></svg>